<svg t="1586576704036" class="icon" viewBox="0 0 1132 1024" version="1.1" xmlns="http://www.w3.org/2000/svg" p-id="6376" width="24" height="24">
<path d="M498.363454 315.40543H619.178667c61.368376 0 109.44042-49.981272 109.440419-113.787104 0-62.301727-48.941604-111.10456-111.421272-111.10456H499.409836c-61.936892 0-110.454348 48.802833-110.454347 111.10456 0.001119 63.804713 48.058614 113.787104 109.407965 113.787104z" p-id="6377"></path><path d="M831.721897 152.438348h-85.883943v65.580765h85.883943c61.305705 0 87.599563 17.867961 106.88098 37.176236 17.79186 17.893701 28.423554 54.953548 28.423554 80.444992 0 27.709552-20.18567 80.885928-37.237788 98.101438-11.86609 11.885115-45.058238 27.04591-74.127528 33.879292v-84.460415l-129.253421 103.38483c-10.671983-51.689058-55.444844-87.745049-109.039773-87.745049h-117.787978c-61.930177 0-110.442037 48.799475-110.442037 111.096726 0 63.805832 48.063091 113.787104 109.420275 113.787104h120.801784c27.678216 0 53.920595-10.363104 73.892512-29.180083 19.716756-18.576367 32.101001-44.181963 34.907768-72.148914l127.044266 101.60654 0.454366 0.363716v-89.140599c49.021062-5.56765 93.842046-28.497416 126.222828-64.583624 32.67847-36.417469 50.67513-84.114605 50.67513-134.305154 0.002238-108.253027-82.583642-183.857801-200.834938-183.857801z" p-id="6378"></path><path d="M617.373517 683.258684H499.581062c-28.086697 0-54.674885 10.217617-74.86727 28.771602-19.940581 18.322326-32.359519 43.537346-35.002894 71.048813l-112.352384-89.864673-0.454365-0.363716v84.455939c-29.053622-6.82219-62.212197-21.943816-74.052547-33.790881-17.084573-17.273705-37.306055-70.497084-37.306054-98.189849 0-29.073766 12.470417-64.404564 28.388861-80.430444 19.293727-19.327301 45.598776-37.210929 106.915672-37.210929h85.870514v-65.57405H300.843366c-118.251296 0-200.838295 75.610369-200.838295 183.871231 0 50.187191 17.997779 97.88209 50.676249 134.299558 32.383021 36.085089 77.202885 59.014855 126.223948 64.582505v89.133884l120.288105-96.206758c16.540678 42.748363 56.288664 70.344883 101.369285 70.344883h120.801784c61.360542 0 109.42699-49.981272 109.42699-113.788223-0.002238-62.291655-48.942723-111.088892-111.417915-111.088892z" p-id="6379">
</path>
</svg>